<svg xmlns="http://www.w3.org/2000/svg" viewBox="0 0 84.49 84.49"><g data-name="Layer 2"><g data-name="Layer 1"><rect width="84.49" height="84.49" fill="#d6d6d6" rx="6.09"/><path d="M54.67 27.15a2.76 2.76 0 102.75 2.75A2.75 2.75 0 0054.67 27.15zM42.44 30.68A11.57 11.57 0 1054 42.24 11.58 11.58 0 0042.44 30.68zm0 19a7.41 7.41 0 117.4-7.41A7.41 7.41 0 0142.44 49.65z"/><path d="M51.61,65.72H32.87a14.12,14.12,0,0,1-14.1-14.1V32.87a14.12,14.12,0,0,1,14.1-14.1H51.61a14.12,14.12,0,0,1,14.11,14.1V51.62A14.12,14.12,0,0,1,51.61,65.72ZM32.87,23.19a9.69,9.69,0,0,0-9.68,9.68V51.62a9.69,9.69,0,0,0,9.68,9.68H51.61a9.69,9.69,0,0,0,9.69-9.68V32.87a9.69,9.69,0,0,0-9.69-9.68Z"/></g></g></svg>