<svg xmlns="http://www.w3.org/2000/svg" viewBox="0 0 84.49 84.49"><g data-name="Layer 2"><g data-name="Layer 1"><rect width="84.49" height="84.49" fill="#d6d6d6" rx="6.09"/><path d="M67.91,26.05a21.57,21.57,0,0,1-5.23,1.49c.84-.14,2.08-1.66,2.57-2.28A9.63,9.63,0,0,0,67,22.09c0-.09.08-.2,0-.27a.3.3,0,0,0-.28,0,27,27,0,0,1-6.21,2.38.42.42,0,0,1-.43-.12,5.64,5.64,0,0,0-.54-.55,10.92,10.92,0,0,0-3-1.84A10.44,10.44,0,0,0,51.9,21a11,11,0,0,0-4.37,1.24A11.19,11.19,0,0,0,44,25.08a10.83,10.83,0,0,0-2.11,4.22,11.55,11.55,0,0,0-.11,4.46c0,.25,0,.28-.21.25C33,32.74,26,29.69,20.24,23.15c-.25-.28-.38-.28-.59,0C17.14,26.94,18.36,33,21.5,36a16.41,16.41,0,0,0,1.31,1.16A10.88,10.88,0,0,1,18.69,36c-.25-.15-.37-.06-.39.22a6.35,6.35,0,0,0,.06,1.22,11,11,0,0,0,6.74,8.72,6.58,6.58,0,0,0,1.37.42,12.12,12.12,0,0,1-4,.12c-.29-.06-.4.09-.29.37,1.78,4.84,5.61,6.28,8.48,7.1.39.07.77.07,1.16.16l-.07.07c-1,1.45-4.26,2.53-5.79,3.07a20.76,20.76,0,0,1-8.8,1.13c-.47-.07-.57-.07-.7,0s0,.19.13.31c.6.4,1.21.75,1.84,1.09a29.34,29.34,0,0,0,5.88,2.35c10.56,2.92,22.46.77,30.4-7.11C60.9,49,63.08,40.46,63.08,31.92c0-.34.4-.52.63-.7a20.6,20.6,0,0,0,4.14-4.3,1.32,1.32,0,0,0,.27-.83v0C68.12,25.91,68.12,26,67.91,26.05Z"/></g></g></svg>